<svg width="24" height="24" viewBox="0 0 24 24" fill="none" xmlns="http://www.w3.org/2000/svg">
  <path d="M12 22C17.5228 22 22 17.5228 22 12C22 6.47715 17.5228 2 12 2C6.47715 2 2 6.47715 2 12C2 17.5228 6.47715 22 12 22Z" fill="#0052FF"/>
  <path d="M12 6.5C9.0975 6.5 6.75 8.8475 6.75 11.75C6.75 14.6525 9.0975 17 12 17C14.9025 17 17.25 14.6525 17.25 11.75C17.25 8.8475 14.9025 6.5 12 6.5ZM12 15.5C9.9325 15.5 8.25 13.8175 8.25 11.75C8.25 9.6825 9.9325 8 12 8C14.0675 8 15.75 9.6825 15.75 11.75C15.75 13.8175 14.0675 15.5 12 15.5Z" fill="white"/>
</svg>