<svg width="24" height="24" viewBox="0 0 24 24" fill="none" xmlns="http://www.w3.org/2000/svg">
  <path d="M12 2L7 5.5L9.5 7L12 5.5L14.5 7L17 5.5L12 2Z" fill="#F3BA2F"/>
  <path d="M17 8.5L14.5 10L12 8.5L9.5 10L7 8.5L4.5 10L7 11.5L9.5 13L12 11.5L14.5 13L17 11.5L19.5 10L17 8.5Z" fill="#F3BA2F"/>
  <path d="M17 14.5L14.5 16L12 14.5L9.5 16L7 14.5L4.5 16L7 17.5L9.5 19L12 17.5L14.5 19L17 17.5L19.5 16L17 14.5Z" fill="#F3BA2F"/>
  <path d="M12 20.5L9.5 19L7 20.5L12 22L17 20.5L14.5 19L12 20.5Z" fill="#F3BA2F"/>
</svg>