<svg width="20" height="20" viewBox="0 0 20 20" fill="none" xmlns="http://www.w3.org/2000/svg" id="icon">
  <path d="M10.5167 15.9583L15.15 18.3333C15.725 18.6417 16.4 18.1833 16.2583 17.5583L15.1917 12.4083C15.15 12.1833 15.2 11.9583 15.3333 11.7833L19.1667 7.58333C19.6583 7.04167 19.3833 6.16667 18.7167 6.09167L13.4833 5.40833C13.2583 5.38333 13.0667 5.25 12.9667 5.05L10.8167 0.25C10.5417 -0.333333 9.70833 -0.333333 9.43333 0.25L7.28333 5.04167C7.18333 5.24167 6.99167 5.375 6.76667 5.4L1.53333 6.08333C0.866667 6.15833 0.591667 7.03333 1.08333 7.575L4.91667 11.775C5.05 11.95 5.1 12.175 5.05833 12.4L4 17.5667C3.85833 18.1917 4.53333 18.65 5.10833 18.3417L9.73333 15.9667C9.93333 15.8583 10.175 15.8583 10.375 15.9667L10.5167 15.9583Z" stroke="currentColor" stroke-width="1.5" stroke-linecap="round" stroke-linejoin="round"/>
</svg>