<svg width="24" height="24" viewBox="0 0 24 24" fill="none" xmlns="http://www.w3.org/2000/svg">
  <path d="M4.92969 15.8995L7.09097 18.0608C7.15578 18.1256 7.23291 18.1768 7.31773 18.2115C7.40254 18.2462 7.49345 18.264 7.58532 18.264H19.2083C19.3726 18.264 19.5302 18.1991 19.6442 18.0838C19.7583 17.9686 19.8225 17.8093 19.8225 17.6432C19.8225 17.4772 19.7583 17.3179 19.6442 17.2026C19.5302 17.0873 19.3726 17.0225 19.2083 17.0225H8.11454L4.92969 13.8376V15.8995Z" fill="url(#paint0_linear_1_123)"/>
  <path d="M4.92969 10.1145L7.09097 12.2757C7.15578 12.3405 7.23291 12.3918 7.31773 12.4265C7.40254 12.4612 7.49345 12.479 7.58532 12.479H19.2083C19.3726 12.479 19.5302 12.4141 19.6442 12.2988C19.7583 12.1836 19.8225 12.0243 19.8225 11.8582C19.8225 11.6922 19.7583 11.5329 19.6442 11.4176C19.5302 11.3023 19.3726 11.2375 19.2083 11.2375H8.11454L4.92969 8.05261V10.1145Z" fill="url(#paint1_linear_1_123)"/>
  <path d="M4.92969 4.32944L7.09097 6.49072C7.15578 6.55551 7.23291 6.60675 7.31773 6.64145C7.40254 6.67615 7.49345 6.69394 7.58532 6.69394H19.2083C19.3726 6.69394 19.5302 6.62906 19.6442 6.51379C19.7583 6.39852 19.8225 6.23925 19.8225 6.07319C19.8225 5.90713 19.7583 5.74786 19.6442 5.63259C19.5302 5.51732 19.3726 5.45244 19.2083 5.45244H8.11454L4.92969 2.26758V4.32944Z" fill="url(#paint2_linear_1_123)"/>
  <defs>
    <linearGradient id="paint0_linear_1_123" x1="5.45244" y1="17.9378" x2="19.2083" y2="17.9378" gradientUnits="userSpaceOnUse">
      <stop stop-color="#00FFA3"/>
      <stop offset="1" stop-color="#DC1FFF"/>
    </linearGradient>
    <linearGradient id="paint1_linear_1_123" x1="5.45244" y1="12.1528" x2="19.2083" y2="12.1528" gradientUnits="userSpaceOnUse">
      <stop stop-color="#00FFA3"/>
      <stop offset="1" stop-color="#DC1FFF"/>
    </linearGradient>
    <linearGradient id="paint2_linear_1_123" x1="5.45244" y1="6.36777" x2="19.2083" y2="6.36777" gradientUnits="userSpaceOnUse">
      <stop stop-color="#00FFA3"/>
      <stop offset="1" stop-color="#DC1FFF"/>
    </linearGradient>
  </defs>
</svg>