<svg width="20" height="20" viewBox="0 0 20 20" fill="none" xmlns="http://www.w3.org/2000/svg">
  <path d="M17.5 10.8042C17.3625 12.5468 16.6797 14.2006 15.5498 15.5397C14.4199 16.8788 12.9064 17.8319 11.2166 18.2627C9.52684 18.6935 7.75095 18.5797 6.12792 17.936C4.50489 17.2923 3.11374 16.1514 2.14607 14.6669C1.17839 13.1824 0.679438 11.4257 0.718683 9.64126C0.757928 7.85686 1.33346 6.12525 2.37011 4.68961C3.40676 3.25397 4.84848 2.18673 6.49868 1.62591C8.14887 1.06509 9.92375 1.03764 11.5917 1.54583C10.1087 3.17583 9.38211 5.31246 9.58373 7.46455C9.78535 9.61665 10.8996 11.5843 12.6505 12.9203C14.4013 14.2563 16.6269 14.8451 18.7917 14.5542L17.5 10.8042Z" stroke="currentColor" stroke-width="1.66667" stroke-linecap="round" stroke-linejoin="round"/>
</svg>